<mxfile host="app.diagrams.net" modified="2023-11-13T17:55:56.759Z" agent="Mozilla/5.0 (Macintosh; Intel Mac OS X 10_15_7) AppleWebKit/537.36 (KHTML, like Gecko) Chrome/118.0.0.0 Safari/537.36" version="22.1.0" etag="xCiRjcQ5PD5l8GqBpL0_" type="github">
  <diagram name="Page-1" id="XuZm4zILziNJedYAJ2iV">
    <mxGraphModel>
      <root>
        <mxCell id="0" />
        <mxCell id="1" parent="0" />
      </root>
    </mxGraphModel>
  </diagram>
</mxfile>
